PathFileType	4	(X/Y/Z)	/Users/itak/Documents/Research/Walk-IL/dataset/trc/00110_00007.trc
DataRate	CameraRate	NumFrames	NumMarkers	Units	OrigDataRate	OrigDataStartFrame	OrigNumFrames
100.000000	100.000000	4	53	mm	100.000000	371	594
Frame#	Time	RPSI			LPSI			L3			STRN			T10			C7			CLAV			RBAK			LBAK			LSHO			LUPA			LAEL			LAOL			LWTS			LWPS			LFRA			LIFD			LHPS			LHTS			RSHO			RUPA			RAEL			RAOL			RWTS			RWPS			RFRA			RIFD			RHTS			RHPS			RBHD			LFHD			RFHD			LBHD			LHIP			RHIP			RASI			LASI			LKNE			LTHI			LANK			LTIP			LTOE			LMT1			LMT5			LHEE			RKNE			RTHI			RANK			RTIP			RTOE			RMT1			RMT5			RHEE			
		X1	Y1	Z1	X2	Y2	Z2	X3	Y3	Z3	X4	Y4	Z4	X5	Y5	Z5	X6	Y6	Z6	X7	Y7	Z7	X8	Y8	Z8	X9	Y9	Z9	X10	Y10	Z10	X11	Y11	Z11	X12	Y12	Z12	X13	Y13	Z13	X14	Y14	Z14	X15	Y15	Z15	X16	Y16	Z16	X17	Y17	Z17	X18	Y18	Z18	X19	Y19	Z19	X20	Y20	Z20	X21	Y21	Z21	X22	Y22	Z22	X23	Y23	Z23	X24	Y24	Z24	X25	Y25	Z25	X26	Y26	Z26	X27	Y27	Z27	X28	Y28	Z28	X29	Y29	Z29	X30	Y30	Z30	X31	Y31	Z31	X32	Y32	Z32	X33	Y33	Z33	X34	Y34	Z34	X35	Y35	Z35	X36	Y36	Z36	X37	Y37	Z37	X38	Y38	Z38	X39	Y39	Z39	X40	Y40	Z40	X41	Y41	Z41	X42	Y42	Z42	X43	Y43	Z43	X44	Y44	Z44	X45	Y45	Z45	X46	Y46	Z46	X47	Y47	Z47	X48	Y48	Z48	X49	Y49	Z49	X50	Y50	Z50	X51	Y51	Z51	X52	Y52	Z52	X53	Y53	Z53	

372	3.71	-858.4603881835938	1122.87744140625	-277.828857421875	-855.3510131835938	1130.839111328125	-413.6758728027344	-863.5523071289062	1169.830200195312	-349.857177734375	-614.9571533203125	1351.296630859375	-348.9278564453125	-874.6939697265625	1327.1748046875	-353.8989562988281	-800.5655517578125	1613.98486328125	-372.572265625	-633.3485717773438	1489.571533203125	-354.0610961914062	-877.81787109375	1438.334106445312	-283.0898132324219	-805.8753051757812	1594.070556640625	-474.2870178222656	-717.5865478515625	1569.595581054688	-536.3974609375	-738.3577270507812	1441.085083007812	-608.9789428710938	-724.099365234375	1223.012084960938	-638.0960083007812	-798.180419921875	1209.761352539062	-592.9533081054688	-624.1947021484375	968.5387573242188	-581.0805053710938	-697.546142578125	940.1453857421875	-622.1581420898438	-703.8764038085938	1107.189453125	-641.3883666992188	-607.8339233398438	777.1265869140625	-558.131103515625	-664.7349243164062	866.8328247070312	-619.0828857421875	-601.8570556640625	881.2371215820312	-590.33642578125	-753.8671264648438	1592.3017578125	-187.6974029541016	-780.3598022460938	1521.7802734375	-124.1946868896484	-831.148681640625	1231.6259765625	-103.8882064819336	-829.3087768554688	1230.031860351562	-201.1952362060547	-708.9520874023438	977.822998046875	-101.1370620727539	-786.4339599609375	967.323486328125	-76.41345977783203	-816.7459106445312	1156.573120117188	-85.74985504150391	-700.2664794921875	780.5135498046875	-112.4287338256836	-688.9191284179688	867.56640625	-91.58271789550781	-758.6224365234375	865.605712890625	-66.8475341796875	-751.2252807617188	1778.2744140625	-293.1429748535156	-596.8711547851562	1832.258422851562	-440.1581420898438	-589.3190307617188	1846.865600585938	-311.176513671875	-767.1561279296875	1767.203979492188	-427.6271667480469	-766.3607788085938	1040.163696289062	-523.5423583984375	-728.510986328125	1025.148315429688	-162.4238433837891	-648.7528686523438	1098.86328125	-219.5336761474609	-654.9346923828125	1098.102172851562	-482.5518188476562	-721.6237182617188	535.6012573242188	-471.6578063964844	-750.392578125	679.6170654296875	-505.8602294921875	-831.8675537109375	33.35054016113281	-432.2638549804688	-817.355712890625	285.3800659179688	-480.6784973144531	-609.634033203125	43.91592025756836	-358.0374755859375	-690.5567626953125	47.12148284912109	-329.8907165527344	-702.8275146484375	32.85923767089844	-446.770751953125	-905.9026489257812	39.02230072021484	-376.1542358398438	-574.6197509765625	557.2678833007812	-199.2587280273438	-650.8195190429688	827.6476440429688	-169.2811889648438	-817.478759765625	85.20565032958984	-178.8506774902344	-632.6124877929688	428.8521423339844	-179.4071960449219	-585.4910278320312	64.98101043701172	-216.0019378662109	-644.1058959960938	61.71633911132812	-264.2350769042969	-686.7466430664062	63.68174743652344	-153.1040191650391	-871.7369384765625	99.79267883300781	-231.5716400146484	
373	3.72	-864.201171875	1123.161499023438	-277.2510375976562	-861.4754638671875	1131.107666015625	-413.1315002441406	-869.4531860351562	1170.008666992188	-349.1961364746094	-621.150146484375	1351.612182617188	-349.3192138671875	-881.0559692382812	1327.278442382812	-353.0928039550781	-807.3237915039062	1614.192016601562	-372.2593078613281	-639.8438110351562	1489.824462890625	-354.6215515136719	-883.952880859375	1438.517700195312	-282.1790466308594	-813.1226806640625	1594.152221679688	-473.8699340820312	-725.17138671875	1569.670043945312	-536.5633544921875	-746.9738159179688	1441.137939453125	-609.0443115234375	-734.5801391601562	1223.003662109375	-638.4068603515625	-808.36474609375	1210.384521484375	-592.630615234375	-637.279052734375	967.1925048828125	-582.8720092773438	-711.3529663085938	939.8295288085938	-623.3629150390625	-715.7092895507812	1106.99853515625	-642.097412109375	-623.1588745117188	775.4788208007812	-560.51806640625	-679.51220703125	866.1295776367188	-620.771240234375	-616.1552734375	879.6411743164062	-592.451416015625	-759.5243530273438	1592.628051757812	-187.609619140625	-785.5167846679688	1522.146850585938	-123.8409805297852	-835.7198486328125	1231.970336914062	-102.6414794921875	-834.8351440429688	1230.230712890625	-199.9199523925781	-713.4908447265625	978.1633911132812	-100.9563903808594	-790.720703125	967.7119140625	-75.35349273681641	-821.0858764648438	1156.94775390625	-84.55986785888672	-704.80712890625	780.7991943359375	-111.9656600952148	-693.4833984375	867.8533935546875	-91.43803405761719	-762.8663330078125	866.0156860351562	-65.91176605224609	-757.96630859375	1778.441162109375	-293.3649597167969	-603.997802734375	1832.660888671875	-440.7155151367188	-596.1799926757812	1847.294189453125	-311.756591796875	-774.1475219726562	1767.335815429688	-427.7699584960938	-772.6183471679688	1040.555541992188	-523.2225952148438	-734.1079711914062	1025.117797851562	-162.4226684570312	-654.4924926757812	1099.029541015625	-219.3799591064453	-661.1018676757812	1098.400024414062	-482.4879455566406	-724.541015625	536.1572265625	-471.9086608886719	-754.6128540039062	680.0405883789062	-505.9690856933594	-831.9175415039062	33.02121734619141	-432.5162048339844	-818.980712890625	285.4222717285156	-480.8648986816406	-609.87060546875	44.47228622436523	-358.3201904296875	-690.6936645507812	47.5787239074707	-330.1113891601562	-702.94677734375	32.80784225463867	-446.9075622558594	-906.10107421875	38.72563934326172	-376.4151916503906	-586.4725952148438	554.6663208007812	-200.5175933837891	-658.7748413085938	826.224365234375	-170.2074737548828	-841.1513061523438	88.99313354492188	-179.0223999023438	-647.4929809570312	427.6707153320312	-180.4707183837891	-609.8121337890625	63.53176498413086	-216.9826812744141	-668.6666259765625	61.46123504638672	-265.0243225097656	-710.7510375976562	64.56338500976562	-153.8303070068359	-895.2966918945312	104.7624359130859	-231.5970916748047	
374	3.73	-869.903564453125	1123.37939453125	-276.6664733886719	-867.5110473632812	1131.330932617188	-412.5659484863281	-875.274658203125	1170.124755859375	-348.5190124511719	-627.3192138671875	1351.887817382812	-349.6104431152344	-887.3598022460938	1327.318237304688	-352.2347106933594	-814.0718994140625	1614.332153320312	-371.8978881835938	-646.34814453125	1490.030151367188	-355.0971374511719	-890.090576171875	1438.631225585938	-281.2457580566406	-820.3435668945312	1594.171020507812	-473.411865234375	-732.7265014648438	1569.676513671875	-536.6655883789062	-755.5361328125	1441.126342773438	-609.03955078125	-744.9494018554688	1222.957397460938	-638.6156005859375	-818.4430541992188	1210.955444335938	-592.2296752929688	-650.3944091796875	965.7872924804688	-584.587890625	-725.1715087890625	939.5023193359375	-624.4981079101562	-727.4790649414062	1106.782836914062	-642.7161865234375	-638.6381225585938	773.7991333007812	-562.8531494140625	-694.3283081054688	865.4255981445312	-622.4083862304688	-630.5892944335938	877.9594116210938	-594.5028686523438	-765.2235717773438	1592.90771484375	-187.4795837402344	-790.7530517578125	1522.474853515625	-123.4555587768555	-840.2433471679688	1232.245849609375	-101.3688354492188	-840.3160400390625	1230.355590820312	-198.6251068115234	-717.8857421875	978.491943359375	-100.6984329223633	-794.8571166992188	968.05419921875	-74.23408508300781	-825.3509521484375	1157.2587890625	-83.33761596679688	-709.1919555664062	781.066650390625	-111.4203796386719	-697.8394775390625	868.1441040039062	-91.20378112792969	-766.9265747070312	866.3946533203125	-64.8974609375	-764.6852416992188	1778.565551757812	-293.538818359375	-611.0899047851562	1832.985961914062	-441.2227172851562	-603.0067749023438	1847.654663085938	-312.2865295410156	-781.1172485351562	1767.40966796875	-427.8610229492188	-778.7291870117188	1040.934692382812	-522.8739013671875	-739.6143798828125	1025.015747070312	-162.4152069091797	-660.2177124023438	1099.136352539062	-219.1407928466797	-667.1664428710938	1098.675048828125	-482.3383483886719	-727.3372192382812	536.7109375	-472.1101379394531	-758.6386108398438	680.4432373046875	-506.0436096191406	-831.96630859375	32.693115234375	-432.77587890625	-820.5361938476562	285.4729309082031	-481.0699462890625	-610.11572265625	45.03641510009766	-358.5823059082031	-690.8090209960938	48.06307601928711	-330.3104553222656	-703.0604248046875	32.75754547119141	-447.0294494628906	-906.3671875	38.48958587646484	-376.7300720214844	-598.728515625	551.9645385742188	-201.6534118652344	-666.96337890625	824.6714477539062	-171.1109313964844	-864.72216796875	92.76065826416016	-179.33935546875	-662.6678466796875	426.4374694824219	-181.4564361572266	-634.149658203125	62.1286735534668	-217.9188537597656	-693.1638793945312	61.28622817993164	-265.8237609863281	-734.7672119140625	65.43433380126953	-154.5923614501953	-918.6729125976562	109.7073364257812	-231.7937316894531	
375	3.74	-875.5767822265625	1123.538208007812	-276.0822143554688	-873.465576171875	1131.511840820312	-411.9857788085938	-881.0274658203125	1170.190185546875	-347.8312683105469	-633.4689331054688	1352.140625	-349.7999572753906	-893.5944213867188	1327.30029296875	-351.3274230957031	-820.8255615234375	1614.415771484375	-371.4860229492188	-652.8638916015625	1490.207397460938	-355.4844665527344	-896.230712890625	1438.683471679688	-280.2872619628906	-827.5518188476562	1594.138549804688	-472.9100036621094	-740.2642211914062	1569.638061523438	-536.70068359375	-764.0423583984375	1441.076293945312	-608.9624633789062	-755.20263671875	1222.901977539062	-638.7098388671875	-828.3988037109375	1211.498168945312	-591.7314453125	-663.5319213867188	964.3473510742188	-586.2147827148438	-738.9896240234375	939.1944580078125	-625.55517578125	-739.1732177734375	1106.567260742188	-643.230712890625	-654.2520751953125	772.1178588867188	-565.1292114257812	-709.1685180664062	864.7465209960938	-623.9903564453125	-645.1485595703125	876.2224731445312	-596.4976806640625	-770.9700317382812	1593.161010742188	-187.3067016601562	-796.0789794921875	1522.78955078125	-123.0364074707031	-844.7417602539062	1232.471435546875	-100.0873794555664	-845.7588500976562	1230.436279296875	-197.3299407958984	-722.142578125	978.8314208984375	-100.3534851074219	-798.8696899414062	968.3677978515625	-73.07436370849609	-829.5672607421875	1157.526123046875	-82.09896850585938	-713.4220581054688	781.3395385742188	-110.8061294555664	-701.999755859375	868.4613647460938	-90.87934875488281	-770.8179321289062	866.7592163085938	-63.82545471191406	-771.3876342773438	1778.669799804688	-293.6632690429688	-618.1433715820312	1833.23974609375	-441.6775207519531	-609.79736328125	1847.9501953125	-312.7636413574219	-788.0693359375	1767.453979492188	-427.9060363769531	-784.7227172851562	1041.30517578125	-522.5079345703125	-745.0486450195312	1024.858520507812	-162.3842163085938	-665.9275512695312	1099.199096679688	-218.8160247802734	-673.1619873046875	1098.93310546875	-482.09912109375	-730.0350341796875	537.2645263671875	-472.2626647949219	-762.4895629882812	680.824951171875	-506.0800476074219	-832.0160522460938	32.37591552734375	-433.038818359375	-822.03369140625	285.5386962890625	-481.285400390625	-610.3677978515625	45.59630966186523	-358.8277587890625	-690.9073486328125	48.5626106262207	-330.4869995117188	-703.1656494140625	32.70981597900391	-447.1327209472656	-906.6820678710938	38.30803298950195	-377.0838928222656	-611.3868408203125	549.2017211914062	-202.6482391357422	-675.3346557617188	823.0400390625	-171.9655303955078	-888.1559448242188	96.49423217773438	-179.8089141845703	-678.1289672851562	425.1842956542969	-182.3492584228516	-658.462646484375	60.77946853637695	-218.8045959472656	-717.537841796875	61.18675231933594	-266.6281127929688	-758.7577514648438	66.29627227783203	-155.3796997070312	-941.8255004882812	114.6031188964844	-232.1713562011719	
